<svg xmlns="http://www.w3.org/2000/svg" width="640" height="360" viewBox="0 0 640 360">
  <defs>
    <linearGradient id="picture-a" x1="-21.804%" x2="121.264%" y1="-24.655%" y2="121.179%">
      <stop offset="0%" stop-color="#306AB2"/>
      <stop offset="100%" stop-color="#00E1ED"/>
    </linearGradient>
  </defs>
  <g fill="none" fill-rule="evenodd">
    <rect width="640" height="360" fill="url(#picture-a)"/>
    <g fill="#FFF" fill-rule="nonzero" transform="translate(107.053 148.799)">
      <polygon points="13.728 14.664 .078 5.148 .078 38.689 13.728 29.251"/>
      <path d="M46.2554283 61.7779075L46.2554283 61.7779075 80.3424808 61.7779075C86.4266686 61.7779075 91.4968252 56.1617341 91.4968252 49.3755246L91.4968252 30.4209393 46.2554283 61.7779075zM91.4968252 4.99215415L9.82830347 61.6219027C9.82830347 61.6219027 9.90630588 61.6219027 9.90630588 61.6219027 10.2963179 61.6999051 10.7643324 61.6999051 11.2323468 61.6999051L39.7812283 61.6999051 91.4188228 25.8967996 91.4188228 4.99215415 91.4968252 4.99215415zM91.4968252.624019268L0 .624019268 17.4725395 12.7143926 17.4725395 26.6768237 27.5348502 19.7346094 45.7094114 32.3709995 91.4968252.624019268zM21.5286648 11.076342L11.7783637 4.29013247 80.3424808 2.88608912 21.5286648 11.076342zM45.7094114 27.8468598L29.3289056 16.4585082 81.3565121 4.44613729 45.7094114 27.8468598z"/>
      <path d="M27.5348502,24.1807466 L0.156004817,43.2133343 L0.156004817,43.2913367 L0.156004817,50.0775463 C0.312009634,53.6656571 1.95006021,56.7857534 4.21213006,59.0478233 C4.6021421,59.4378353 5.07015655,59.8278473 5.61617341,60.2178594 L42.5113126,34.6330694 L27.5348502,24.1807466 Z"/>
      <g transform="translate(111.543 10.14)">
        <path d="M.54601686 21.2946575C.54601686 9.04827939 9.82830347.702021677 21.762672.702021677 30.5769441.702021677 35.6471007 5.4601686 38.4551874 10.4523227L31.2009634 14.0404335C29.5629128 10.8423348 25.974802 8.2682553 21.8406744 8.2682553 14.5864504 8.2682553 9.36028902 13.8064263 9.36028902 21.3726599 9.36028902 28.9388936 14.5864504 34.4770646 21.8406744 34.4770646 25.974802 34.4770646 29.5629128 31.9809875 31.2009634 28.7048863L38.4551874 32.2149947C35.5690983 37.2071489 30.5769441 42.0432982 21.762672 42.0432982 9.82830347 41.8872934.54601686 33.5410357.54601686 21.2946575zM62.0899172 41.1852717L62.0899172 37.5191585C60.139857 39.7032259 56.6297486 41.8872934 51.9496041 41.8872934 45.631409 41.8872934 42.5893151 38.4551874 42.5893151 32.839014L42.5893151 12.3243805 50.1555487 12.3243805 50.1555487 29.7969201C50.1555487 33.7750429 52.2616137 35.1010838 55.4597125 35.1010838 58.423804 35.1010838 60.6858738 33.4630333 62.0119148 31.8249827L62.0119148 12.2463781 69.5781484 12.2463781 69.5781484 41.1072693 62.0899172 41.1072693 62.0899172 41.1852717zM73.7902785 38.767197L77.0663796 33.4630333C79.3284495 34.8670766 83.4625771 36.1151151 87.0506879 36.1151151 90.3267891 36.1151151 91.8868372 34.7890742 91.8868372 32.9950188 91.8868372 28.2368719 74.7263074 32.0589899 74.7263074 20.7486407 74.7263074 15.9124913 78.9384374 11.7003613 86.5826735 11.7003613 91.4968252 11.7003613 95.3189432 12.6363902 98.4390396 14.3524432L94.7729264 19.1885925C92.6668613 18.0965588 90.1707843 17.4725395 86.5826735 17.4725395 83.8525892 17.4725395 82.0585338 18.720578 82.0585338 20.3586286 82.0585338 24.6487611 99.1410612 21.0606503 99.1410612 32.7610116 99.1410612 37.9871729 94.6949239 42.0432982 86.6606759 42.0432982 81.6685217 41.8872934 77.2223844 40.9512645 73.7902785 38.767197zM106.473288 34.0090501L106.473288 19.8906142 101.715141 19.8906142 101.715141 17.7065467 111.699449 4.44613729 114.117524 4.44613729 114.117524 13.2604094 119.967704 13.2604094 119.967704 19.8906142 114.117524 19.8906142 114.117524 31.9809875C114.117524 33.7750429 115.053553 35.1790862 116.769606 35.1790862 117.939642 35.1790862 118.953673 34.7890742 119.421687 34.3210597L121.059738 40.093238C119.889702 41.1072693 117.861639 41.9652958 114.741543 41.9652958 109.281374 41.8872934 106.473288 39.1572091 106.473288 34.0090501zM124.101832 26.7548261C124.101832 18.5645732 129.87401 11.6223589 139.312302 11.6223589 148.906598 11.6223589 154.600774 18.5645732 154.600774 26.7548261 154.600774 35.0230814 148.828595 41.9652958 139.312302 41.9652958 129.87401 41.8872934 124.101832 35.0230814 124.101832 26.7548261zM146.800533 26.7548261C146.800533 22.3086888 144.148451 18.4085684 139.390304 18.4085684 134.632157 18.4085684 132.058078 22.3086888 132.058078 26.7548261 132.058078 31.2789658 134.71016 35.1790862 139.390304 35.1790862 144.070449 35.1790862 146.800533 31.2789658 146.800533 26.7548261zM194.616009 41.1852717L194.616009 22.9327081C194.616009 20.2806262 193.445973 18.330566 190.325877 18.330566 187.673795 18.330566 185.411725 20.1246214 184.319691 21.6846696L184.319691 41.1852717 176.675455 41.1852717 176.675455 22.9327081C176.675455 20.2806262 175.505419 18.330566 172.385323 18.330566 169.733241 18.330566 167.549174 20.1246214 166.379137 21.762672L166.379137 41.1852717 158.812904 41.1852717 158.812904 12.3243805 166.379137 12.3243805 166.379137 16.0684962C167.549174 14.3524432 171.371292 11.6223589 175.817429 11.6223589 180.029559 11.6223589 182.759643 13.5724191 183.851677 16.8485202 185.489727 14.1964384 189.311845 11.6223589 193.757983 11.6223589 199.062147 11.6223589 202.260245 14.4304456 202.260245 20.3586286L202.260245 41.1852717 194.616009 41.1852717 194.616009 41.1852717zM206.394373 26.7548261C206.394373 18.4085684 212.556563 11.6223589 221.370835 11.6223589 229.9511 11.6223589 235.801281 18.0965588 235.801281 27.5348502L235.801281 29.1729008 214.350619 29.1729008C214.818633 32.839014 217.782725 35.8811079 222.696876 35.8811079 225.114951 35.8811079 228.547057 34.7890742 230.419115 32.9950188L233.773218 37.9091705C230.887129 40.5612524 226.36299 41.8872934 221.916852 41.8872934 213.024578 41.8872934 206.394373 36.0371127 206.394373 26.7548261zM221.292833 17.6285443C216.534686 17.6285443 214.506623 21.1386527 214.194614 24.0247418L228.391052 24.0247418C228.235047 21.2946575 226.36299 17.6285443 221.292833 17.6285443zM239.935409 41.1852717L239.935409 12.3243805 247.501642 12.3243805 247.501642 16.3025034C249.529705 13.7284239 253.117816 11.6223589 256.705926 11.6223589L256.705926 19.0325877C256.15991 18.8765829 255.457888 18.8765829 254.599861 18.8765829 252.103784 18.8765829 248.749681 20.2806262 247.501642 22.152684L247.501642 41.1852717 239.935409 41.1852717zM255.925902 37.051144C255.925902 34.3990622 258.10997 32.2149947 260.762052 32.2149947 263.414134 32.2149947 265.598201 34.3990622 265.598201 37.051144 265.598201 39.7032259 263.414134 41.8872934 260.762052 41.8872934 258.10997 41.8872934 255.925902 39.6252235 255.925902 37.051144zM271.05837 4.68014451C271.05837 2.18406744 273.164435.234007226 275.582509.234007226 278.078586.234007226 280.106649 2.18406744 280.106649 4.68014451 280.106649 7.17622158 278.078586 9.20428421 275.582509 9.20428421 273.164435 9.20428421 271.05837 7.17622158 271.05837 4.68014451zM271.838394 41.1852717L271.838394 12.3243805 279.404627 12.3243805 279.404627 41.1852717 271.838394 41.1852717zM283.538755 26.7548261C283.538755 18.5645732 289.310933 11.6223589 298.749225 11.6223589 308.343521 11.6223589 314.037697 18.5645732 314.037697 26.7548261 314.037697 35.0230814 308.265518 41.9652958 298.749225 41.9652958 289.232931 41.8872934 283.538755 35.0230814 283.538755 26.7548261zM306.159453 26.7548261C306.159453 22.3086888 303.507372 18.4085684 298.749225 18.4085684 293.991078 18.4085684 291.416998 22.3086888 291.416998 26.7548261 291.416998 31.2789658 294.06908 35.1790862 298.749225 35.1790862 303.507372 35.1790862 306.159453 31.2789658 306.159453 26.7548261z"/>
      </g>
    </g>
  </g>
</svg>
