<?xml version="1.0" encoding="UTF-8"?>
<svg width="257px" height="257px" viewBox="0 0 257 257" version="1.1" xmlns="http://www.w3.org/2000/svg" xmlns:xlink="http://www.w3.org/1999/xlink">
    <!-- Generator: Sketch 50.2 (55047) - http://www.bohemiancoding.com/sketch -->
    <title>customerio/logo</title>
    <desc>Created with Sketch.</desc>
    <defs>
        <circle id="path-1" cx="128.5" cy="128.5" r="125.5"></circle>
    </defs>
    <g id="customerio/logo" stroke="none" stroke-width="1" fill="none" fill-rule="evenodd">
        <mask id="mask-2" fill="white">
            <use xlink:href="#path-1"></use>
        </mask>
        <use id="Mask" fill="#31706C" xlink:href="#path-1"></use>
        <g id="Group" mask="url(#mask-2)" fill="#FFFFFF" fill-rule="nonzero">
            <g transform="translate(55.000000, 79.000000)" id="Shape">
                <polygon points="21.9356338 23.4158198 0.124634283 8.22044738 0.124634283 61.7779075 21.9356338 46.7070874"></polygon>
                <path d="M73.9081299,98.6453685 L128.373312,98.6453685 C138.094786,98.6453685 146.196014,89.6776077 146.196014,78.8415635 L146.196014,48.5753709 L73.9081299,98.6453685 Z"></path>
                <path d="M146.196014,7.97134291 L15.7039197,98.396264 C15.7039197,98.396264 15.828554,98.396264 15.828554,98.396264 C16.4517254,98.5208163 17.1995311,98.5208163 17.9473368,98.5208163 L63.5634844,98.5208163 L146.07138,41.3513413 L146.07138,7.97134291 L146.196014,7.97134291 Z"></path>
                <path d="M146.196014,0.996417864 L0,0.996417864 L27.9180794,20.302014 L27.9180794,42.5968637 L43.995902,31.5117149 L73.0356899,51.6891767 L146.196014,0.996417864 Z M34.3990622,17.6864171 L18.8197768,6.85037281 L128.373312,4.60843262 L34.3990622,17.6864171 Z M73.0356899,44.4651472 L46.8624905,26.2805212 L129.993557,7.09947728 L73.0356899,44.4651472 Z"></path>
                <path d="M43.995902,38.6111922 L0.249268566,69.0019371 L0.249268566,69.1264893 L0.249268566,79.9625336 C0.498537133,85.6919363 3.11585708,90.6740256 6.73025129,94.2860404 C7.35342271,94.9088015 8.10122841,95.5315627 8.97366839,96.1543238 L67.9256843,55.3011914 L43.995902,38.6111922 Z"></path>
            </g>
        </g>
    </g>
</svg>