<svg xmlns="http://www.w3.org/2000/svg" xmlns:xlink="http://www.w3.org/1999/xlink" width="257" height="257" viewBox="0 0 257 257">
  <defs>
    <circle id="logo-a" cx="128.5" cy="128.5" r="124.5"/>
  </defs>
  <g fill="none" fill-rule="evenodd">
    <circle cx="128" cy="128" r="125" fill="#FFF" transform="translate(.5 .5)"/>
    <mask id="logo-b" fill="#fff">
      <use xlink:href="#logo-a"/>
    </mask>
    <use fill="#31706C" xlink:href="#logo-a"/>
    <g fill="#FFF" fill-rule="nonzero" mask="url(#logo-b)">
      <g transform="translate(55 79)">
        <polygon points="21.936 23.416 .125 8.22 .125 61.778 21.936 46.707"/>
        <path d="M73.9081299 98.6453685L128.373312 98.6453685C138.094786 98.6453685 146.196014 89.6776077 146.196014 78.8415635L146.196014 48.5753709 73.9081299 98.6453685zM146.196014 7.97134291L15.7039197 98.396264C15.7039197 98.396264 15.828554 98.396264 15.828554 98.396264 16.4517254 98.5208163 17.1995311 98.5208163 17.9473368 98.5208163L63.5634844 98.5208163 146.07138 41.3513413 146.07138 7.97134291 146.196014 7.97134291zM146.196014.996417864L0 .996417864 27.9180794 20.302014 27.9180794 42.5968637 43.995902 31.5117149 73.0356899 51.6891767 146.196014.996417864zM34.3990622 17.6864171L18.8197768 6.85037281 128.373312 4.60843262 34.3990622 17.6864171zM73.0356899 44.4651472L46.8624905 26.2805212 129.993557 7.09947728 73.0356899 44.4651472z"/>
        <path d="M43.995902,38.6111922 L0.249268566,69.0019371 L0.249268566,69.1264893 L0.249268566,79.9625336 C0.498537133,85.6919363 3.11585708,90.6740256 6.73025129,94.2860404 C7.35342271,94.9088015 8.10122841,95.5315627 8.97366839,96.1543238 L67.9256843,55.3011914 L43.995902,38.6111922 Z"/>
      </g>
    </g>
  </g>
</svg>
