<svg xmlns="http://www.w3.org/2000/svg" width="640" height="360" viewBox="0 0 640 360">
  <g fill="none" fill-rule="evenodd">
    <rect width="640" height="360" fill="#31706C"/>
    <g fill="#FFF" fill-rule="nonzero" transform="translate(228 118)">
      <polygon points="27.457 29.329 .156 10.296 .156 77.378 27.457 58.502"/>
      <path d="M92.5108565 123.555815L160.684962 123.555815C172.853337 123.555815 182.99365 112.323468 182.99365 98.7510492L182.99365 60.8418786 92.5108565 123.555815zM182.99365 9.98430829L19.6566069 123.243805C19.6566069 123.243805 19.8126118 123.243805 19.8126118 123.243805 20.5926358 123.39981 21.5286648 123.39981 22.4646937 123.39981L79.5624567 123.39981 182.837646 51.7935993 182.837646 9.98430829 182.99365 9.98430829zM182.99365 1.24803854L0 1.24803854 34.945079 25.4287852 34.945079 53.3536474 55.0697004 39.4692187 91.4188228 64.7419991 182.99365 1.24803854zM43.0573295 22.152684L23.5567274 8.58026494 160.684962 5.77217823 43.0573295 22.152684zM91.4188228 55.6937197L58.6578112 32.9170164 162.713024 8.89227457 91.4188228 55.6937197z"/>
      <path d="M55.0697004,48.3614933 L0.312009634,86.4266686 L0.312009634,86.5826735 L0.312009634,100.155093 C0.624019268,107.331314 3.90012043,113.571507 8.42426012,118.095647 C9.20428421,118.875671 10.1403131,119.655695 11.2323468,120.435719 L85.0226253,69.2661388 L55.0697004,48.3614933 Z"/>
    </g>
  </g>
</svg>
